# xmcd CD database file
#
# Track frame offsets:
#	150
#	13544
#	32137
#	48736
#	67129
#	84418
#	103583
#	123075
#	145415
#	158411
#	177273
#	188350
#	216831
#	230672
#	250949
#	268521
#	281607
#
# Disc length: 4001 seconds
#
# Revision: 0
# Processed by: cddbd v1.5.2PL0 Copyright (c) Steve Scherf et al.
# Submitted via: CDex 1.51
#
DISCID=eb0f9f11
DTITLE=Fat Harry and The A List - Once Upon A Summer Night
DYEAR=2009
DGENRE=Blues
TTITLE0=Walking By Myself
TTITLE1=Strawberry Sweet
TTITLE2=Black Magic Woman
TTITLE3=Long Train Runnin'
TTITLE4=Cross Over Country
TTITLE5=Caroline
TTITLE6=The Story Of My Life
TTITLE7=Locomotive Breath
TTITLE8=Honky Tonk Woman
TTITLE9=Unchain My Heart
TTITLE10=Twist and Shout
TTITLE11=Bullfrog Blues
TTITLE12=Framed
TTITLE13=You Can Leave Your Hat On
TTITLE14=Brown Sugar
TTITLE15=I Got You (I Feel Good)
TTITLE16=Take the A-List
EXTD=YEAR: 2009
EXTT0=
EXTT1=
EXTT2=
EXTT3=
EXTT4=
EXTT5=
EXTT6=
EXTT7=
EXTT8=
EXTT9=
EXTT10=
EXTT11=
EXTT12=
EXTT13=
EXTT14=
EXTT15=
EXTT16=
PLAYORDER=
